<svg xmlns="http://www.w3.org/2000/svg" xml:space="preserve" x="0px" y="0px" viewBox="0 0 441.52 347.247"><g fill="#494941"><path d="M18.84 262.517c-5.649-2.75-10.529-5.126-10.529-10.217 0-7.096 6.43-7.862 9.194-7.862 7.422 0 8.873 1.605 9.719 6.756.129.812.808 1.358 1.688 1.358.919 0 1.896-.633 1.896-1.806v-6.365c0-1.377-.991-1.949-1.909-2.373-3.283-1.605-7.117-2.419-11.395-2.419-9.373 0-15.671 5.227-15.671 13.007 0 8.66 7.34 12.268 13.816 15.452 5.683 2.793 11.05 5.432 11.05 10.968 0 5.721-4.409 9.564-10.971 9.564-8.009 0-9.723-1.752-10.533-6.682-.128-.812-.806-1.358-1.687-1.358-.92 0-1.897.633-1.897 1.806v6.364c0 1.377.99 1.95 1.908 2.374 3.422 1.673 7.188 2.419 12.209 2.419 10.925 0 17.447-5.443 17.447-14.562.002-9.444-7.614-13.152-14.335-16.424zM67.234 239.589c-13.569 0-19.89 8.578-19.89 26.994 0 18.114 6.506 26.92 19.89 26.92 13.469 0 19.741-8.554 19.741-26.92 0-17.912-6.642-26.994-19.741-26.994zm0 48.991c-11.788 0-13.413-10.572-13.413-21.997 0-11.464 1.625-22.072 13.413-22.072 13.265 0 13.265 14.908 13.265 22.072-.001 10.878-1.577 21.997-13.265 21.997zM121.771 239.589c-13.569 0-19.89 8.578-19.89 26.994 0 18.114 6.506 26.92 19.89 26.92 13.469 0 19.741-8.554 19.741-26.92 0-17.912-6.641-26.994-19.741-26.994zm0 48.991c-11.788 0-13.413-10.572-13.413-21.997 0-11.464 1.625-22.072 13.413-22.072 13.265 0 13.265 14.908 13.265 22.072 0 10.878-1.577 21.997-13.265 21.997zM202.431 240.404h-13.247c-.803 0-1.454.687-1.516 1.598-.055.805.395 1.686 1.514 1.838 3.021.465 3.942 1.231 3.942 3.28v35.497l-23.492-40.934c-.517-.86-1.189-1.279-2.058-1.279h-9.99c-.803 0-1.455.687-1.517 1.598-.055.805.396 1.686 1.515 1.838 3.021.465 3.942 1.231 3.942 3.28v38.853c0 2.05-.921 2.816-3.934 3.279-1.128.154-1.578 1.036-1.523 1.841.062.911.714 1.597 1.517 1.597h13.247c.802 0 1.454-.687 1.516-1.597.055-.805-.395-1.687-1.514-1.839-3.021-.464-3.942-1.23-3.942-3.28v-37.126l24.455 42.564c.517.86 1.189 1.279 2.057 1.279h3.034c1.305 0 2.054-.749 2.054-2.054V247.12c0-2.049.921-2.815 3.935-3.279 1.127-.154 1.577-1.034 1.522-1.839-.062-.911-.714-1.598-1.517-1.598zM259.706 240.404h-10.583c-.803 0-1.454.687-1.516 1.597-.055.805.395 1.686 1.527 1.84 1.45.181 1.722.443 1.771.547.132.277-.426 1.162-.877 1.879l-10.739 17.567-10.316-17.573c-.447-.711-1.005-1.596-.874-1.873.05-.104.32-.366 1.776-.548 1.128-.154 1.577-1.035 1.522-1.839-.062-.911-.713-1.598-1.516-1.598h-12.803c-.803 0-1.455.687-1.517 1.598-.055.805.396 1.686 1.514 1.838 2.622.404 4.021 1.33 5.346 3.535l12.954 21.862v16.736c0 2.05-.921 2.816-3.934 3.279-1.128.154-1.577 1.036-1.522 1.841.062.911.714 1.597 1.516 1.597h14.135c.803 0 1.454-.687 1.517-1.597.055-.805-.395-1.687-1.514-1.839-3.021-.464-3.942-1.23-3.942-3.28v-16.066l13.841-22.529.176-.294c1.199-2.006 1.746-2.921 4.052-3.242 1.128-.154 1.577-1.035 1.522-1.839-.061-.912-.713-1.599-1.516-1.599zM319.501 289.252c-2.747-.422-3.831-1.228-4.639-3.451l-15.84-43.746c-.446-1.158-1.161-1.652-2.392-1.652h-2.072c-1.229 0-1.944.494-2.393 1.659L276.031 285.8c-.809 2.223-1.893 3.029-4.63 3.45-1.128.154-1.578 1.036-1.523 1.841.062.911.714 1.597 1.517 1.597h12.654c.803 0 1.454-.687 1.517-1.597.055-.805-.395-1.687-1.514-1.839-1.602-.246-2.454-.589-2.764-1.112-.24-.406-.2-1.035.124-1.925l3.729-10.399h19.28l3.876 10.623c.303.833.349 1.411.138 1.766-.349.589-1.576.852-2.843 1.046-1.128.154-1.578 1.036-1.523 1.841.062.911.714 1.597 1.517 1.597h13.913c.802 0 1.454-.687 1.516-1.597.055-.806-.394-1.687-1.514-1.84zm-32.669-18.136 7.807-21.86 8.011 21.86h-15.818zM378.253 240.404h-13.247c-.803 0-1.454.687-1.516 1.598-.055.805.395 1.686 1.514 1.838 3.021.465 3.942 1.231 3.942 3.28v35.497l-23.492-40.934c-.517-.86-1.189-1.279-2.058-1.279h-9.99c-.803 0-1.455.687-1.517 1.598-.055.805.396 1.686 1.515 1.838 3.021.465 3.942 1.231 3.942 3.28v38.853c0 2.05-.921 2.816-3.934 3.279-1.128.154-1.578 1.036-1.523 1.841.062.911.714 1.597 1.517 1.597h13.247c.802 0 1.454-.687 1.516-1.597.055-.805-.395-1.687-1.514-1.839-3.021-.464-3.942-1.23-3.942-3.28v-37.126l24.455 42.564c.517.86 1.189 1.279 2.057 1.279h3.034c1.305 0 2.054-.749 2.054-2.054V247.12c0-2.049.921-2.815 3.935-3.279 1.127-.154 1.577-1.034 1.522-1.839-.062-.911-.714-1.598-1.517-1.598zM436.712 264.011h-13.247c-.802 0-1.454.687-1.516 1.597-.055.805.395 1.687 1.514 1.839 2.926.449 3.498 1.542 3.498 3.279v14.924c-2.655 1.971-6.466 2.93-11.637 2.93-12.686 0-14.152-12.554-14.152-21.997 0-11.464 1.75-22.072 14.449-22.072 11.371 0 11.968 2.982 13.275 9.52.166.791.821 1.302 1.668 1.302.939 0 1.911-.692 1.911-1.85V244.9c0-1.377-.99-1.95-1.908-2.374-4.147-2.031-8.758-2.937-14.946-2.937-14.276 0-20.926 8.578-20.926 26.994 0 17.863 6.94 26.92 20.629 26.92 9.865 0 17.892-3.71 17.892-8.271v-14.506c0-1.736.572-2.83 3.489-3.278 1.128-.154 1.578-1.036 1.523-1.841-.062-.909-.713-1.596-1.516-1.596z"/></g><g fill="#494941"><path d="M7.868 316.299H.816c-.431 0-.78.37-.813.86-.029.433.213.908.816.99 1.691.26 2.207.691 2.207 1.845v21.524c0 1.153-.516 1.584-2.202 1.844-.607.082-.851.556-.821.989.033.491.383.861.813.861h6.888c7.443 0 15.052-1.715 15.052-14.437-.001-12.722-7.156-14.476-14.888-14.476zm.656 26.322H7.089c-.463 0-.652-.201-.652-.693v-22.345c0-.493.189-.693.652-.693h2.05c6.878 0 10.082 3.777 10.082 11.886 0 8.192-3.299 11.845-10.697 11.845zM50.253 338.98c-.525 0-.909.323-.977.818-.282 1.831-.646 2.822-1.762 2.822h-9.881c-.463 0-.652-.201-.652-.693v-10.41h7.95c1.101 0 1.566.609 1.843 2.408.068.5.452.823.978.823.49 0 .997-.305.997-.815v-7.298c0-.511-.507-.815-.997-.815-.525 0-.909.323-.977.818-.271 1.764-.72 2.33-1.844 2.33h-7.95v-9.385c0-.493.189-.693.652-.693h9.061c1.236 0 1.418.573 1.805 2.384.09.426.442.701.898.701.5 0 1.032-.35 1.032-.998v-3.566c0-.696-.431-1.111-1.152-1.111H31.361c-.431 0-.78.37-.813.86-.029.433.213.908.816.99 1.691.26 2.207.691 2.207 1.845v21.524c0 1.153-.516 1.584-2.202 1.844-.607.082-.851.556-.821.989.033.491.383.861.813.861h18.737c.722 0 1.152-.416 1.152-1.111v-4.305c0-.512-.506-.817-.997-.817zM66.333 316.299h-6.765c-.431 0-.78.37-.813.86-.029.433.213.908.816.99 1.691.26 2.207.691 2.207 1.845v21.524c0 1.153-.516 1.584-2.202 1.844-.607.082-.851.556-.821.989.033.491.383.861.813.861H67.4c.431 0 .78-.37.813-.861.029-.433-.214-.907-.816-.989-1.691-.26-2.207-.691-2.207-1.845v-9.467h1.8c8.954 0 13.124-2.555 13.124-8.04 0-6.4-5.509-7.711-13.781-7.711zm-1.143 3.284c0-.577.234-.693.611-.693h1.722c8.027 0 9.057 2.737 9.057 5.121 0 3.694-3.15 5.49-9.631 5.49H65.19v-9.918zM112.62 343.362c-1.535-.236-2.14-.687-2.591-1.93l-8.776-24.235c-.242-.63-.631-.898-1.3-.898h-1.147c-.669 0-1.058.269-1.301.902l-8.938 24.231c-.451 1.243-1.057 1.694-2.586 1.93-.607.082-.851.556-.821.989.033.491.383.861.813.861h7.011c.431 0 .78-.37.813-.861.029-.433-.214-.907-.816-.989-.896-.138-1.374-.332-1.55-.629-.138-.232-.116-.588.066-1.09l2.072-5.779h10.72l2.153 5.903c.171.47.195.797.074 1.001-.198.336-.886.484-1.595.593-.607.082-.85.556-.82.99.033.49.383.86.812.86h7.709c.43 0 .779-.37.812-.86.03-.433-.212-.907-.814-.989zm-18.134-10.049 4.363-12.217 4.478 12.217h-8.841zM142.466 343.362c-1.47-.226-1.829-.737-2.57-1.974l-5.931-9.872c4.345-1.034 6.458-3.479 6.458-7.465 0-6.435-5.328-7.753-13.329-7.753h-6.765c-.431 0-.78.37-.813.86-.029.433.213.908.816.99 1.691.26 2.207.691 2.207 1.845v21.524c0 1.153-.516 1.584-2.202 1.844-.607.082-.851.556-.821.989.033.491.383.861.813.861h7.831c.431 0 .78-.37.813-.861.029-.433-.214-.907-.816-.989-1.691-.26-2.207-.691-2.207-1.845v-9.426h1.8c.878 0 1.71 0 2.531-.069l5.905 9.788c.22.365.283.652.189.852-.147.314-.715.544-1.73.7-.607.082-.85.556-.82.99.033.49.383.86.812.86h7.831c.431 0 .78-.37.813-.861.031-.432-.212-.906-.815-.988zm-16.515-23.779c0-.577.234-.693.611-.693h1.722c7.563 0 8.606 2.481 8.606 5.162 0 2.556-1.044 5.49-9.181 5.49h-1.759v-9.959zM169.243 316.299H149.89c-.722 0-1.152.416-1.152 1.111v4.059c0 .295.119.561.336.746.188.16.441.252.696.252.456 0 .809-.275.897-.7l.058-.268c.363-1.714.605-2.609 1.748-2.609h5.367v22.628c0 1.153-.516 1.584-2.202 1.844-.607.082-.851.556-.821.989.033.491.383.861.813.861h7.831c.431 0 .78-.37.813-.861.029-.433-.214-.907-.816-.989-1.691-.26-2.207-.691-2.207-1.845V318.89h5.408c1.143 0 1.385.895 1.748 2.609l.057.267c.09.426.442.701.897.701.501 0 1.032-.35 1.032-.998v-4.059c.001-.696-.43-1.111-1.15-1.111zM209.374 318.149c.607-.083.85-.557.82-.99-.033-.49-.383-.86-.813-.86h-6.519c-.718 0-1.015.402-1.139.744l-7.93 23.349-8.409-23.353c-.122-.337-.418-.739-1.137-.739h-5.945c-.431 0-.78.37-.813.86-.029.433.213.908.816.99 1.691.26 2.207.691 2.207 1.845v21.524c0 1.153-.516 1.584-2.202 1.844-.607.082-.851.556-.821.989.033.491.383.861.813.861h7.339c.431 0 .78-.37.813-.861.029-.433-.214-.907-.816-.989-1.691-.26-2.207-.691-2.207-1.845v-20.115l8.453 23.071c.123.337.42.739 1.137.739h1.312c.718 0 1.015-.402 1.14-.744l8.286-24.552v21.602c0 1.153-.516 1.584-2.202 1.844-.607.082-.85.556-.82.99.033.491.382.86.812.86h7.831c.431 0 .78-.37.813-.861.029-.433-.214-.907-.816-.989-1.691-.26-2.207-.691-2.207-1.845v-21.524c.001-1.154.517-1.585 2.204-1.845zM237.005 338.98c-.525 0-.909.323-.977.818-.282 1.831-.646 2.822-1.762 2.822h-9.881c-.463 0-.652-.201-.652-.693v-10.41h7.95c1.101 0 1.566.609 1.843 2.408.068.5.452.823.978.823.49 0 .997-.305.997-.815v-7.298c0-.511-.507-.815-.997-.815-.525 0-.909.323-.977.818-.271 1.764-.72 2.33-1.844 2.33h-7.95v-9.385c0-.493.189-.693.652-.693h9.061c1.236 0 1.418.573 1.805 2.384.09.426.442.701.898.701.5 0 1.032-.35 1.032-.998v-3.566c0-.696-.431-1.111-1.152-1.111h-17.917c-.431 0-.78.37-.813.86-.029.433.213.908.816.99 1.691.26 2.207.691 2.207 1.845v21.524c0 1.153-.516 1.584-2.202 1.844-.607.082-.851.556-.821.989.033.491.383.861.813.861h18.737c.722 0 1.152-.416 1.152-1.111v-4.305c.001-.512-.505-.817-.996-.817zM271.166 316.299h-7.339c-.43 0-.779.37-.812.86-.029.433.213.908.815.99 1.691.26 2.207.691 2.207 1.845v19.767l-13.065-22.766c-.28-.468-.646-.696-1.116-.696h-5.535c-.431 0-.78.37-.813.86-.029.433.213.908.816.99 1.691.26 2.207.691 2.207 1.845v21.524c0 1.153-.516 1.584-2.202 1.844-.607.082-.851.556-.821.989.033.491.383.861.813.861h7.339c.431 0 .78-.37.813-.861.029-.433-.214-.907-.816-.989-1.691-.26-2.207-.691-2.207-1.845v-20.669l13.599 23.668c.281.468.646.696 1.116.696h1.682c.716 0 1.11-.395 1.11-1.111v-24.107c0-1.153.516-1.584 2.203-1.844.607-.083.85-.557.82-.99-.033-.492-.383-.861-.814-.861zM299.99 316.299h-19.353c-.722 0-1.152.416-1.152 1.111v4.059c0 .295.119.561.336.746.188.16.441.252.696.252.456 0 .809-.275.897-.7l.058-.268c.363-1.714.605-2.609 1.748-2.609h5.367v22.628c0 1.153-.516 1.584-2.202 1.844-.607.082-.851.556-.821.989.033.491.383.861.813.861h7.831c.431 0 .78-.37.813-.861.029-.433-.214-.907-.816-.989-1.691-.26-2.207-.691-2.207-1.845V318.89h5.408c1.143 0 1.385.895 1.748 2.609l.057.267c.09.426.442.701.897.701.501 0 1.032-.35 1.032-.998v-4.059c.001-.696-.43-1.111-1.15-1.111zM318.142 328.547c-3.139-1.528-5.849-2.847-5.849-5.685 0-3.956 3.581-4.383 5.121-4.383 4.131 0 4.939.895 5.411 3.767.069.436.434.729.908.729.496 0 1.023-.341 1.023-.973v-3.526c0-.748-.518-1.048-1.042-1.29-1.815-.888-3.936-1.338-6.301-1.338-5.177 0-8.655 2.885-8.655 7.179 0 4.781 4.059 6.776 7.64 8.536 3.155 1.552 6.137 3.017 6.137 6.102 0 3.186-2.453 5.326-6.105 5.326-4.457 0-5.41-.977-5.861-3.726-.069-.437-.434-.73-.908-.73-.497 0-1.024.341-1.024.974v3.526c0 .747.518 1.048 1.043 1.29 1.892.925 3.974 1.338 6.751 1.338 6.036 0 9.64-3.006 9.64-8.04-.001-5.216-4.213-7.267-7.929-9.076zM353.658 316.299h-19.353c-.722 0-1.152.416-1.152 1.111v4.059c0 .295.119.561.336.746.188.16.441.252.696.252.456 0 .809-.275.897-.7l.058-.268c.363-1.714.605-2.609 1.748-2.609h5.367v22.628c0 1.153-.516 1.584-2.202 1.844-.607.082-.851.556-.821.989.033.491.383.861.813.861h7.831c.431 0 .78-.37.813-.861.029-.433-.214-.907-.816-.989-1.691-.26-2.207-.691-2.207-1.845V318.89h5.408c1.143 0 1.385.895 1.748 2.609l.057.267c.09.426.442.701.897.701.501 0 1.032-.35 1.032-.998v-4.059c.001-.696-.43-1.111-1.15-1.111zM373.501 315.848c-7.499 0-10.992 4.743-10.992 14.928 0 10.018 3.596 14.888 10.992 14.888 7.443 0 10.91-4.73 10.91-14.888.001-9.906-3.67-14.928-10.91-14.928zm0 27.142c-6.555 0-7.458-5.871-7.458-12.215 0-6.365.903-12.255 7.458-12.255 7.376 0 7.376 8.277 7.376 12.255 0 6.04-.876 12.215-7.376 12.215zM415.482 343.362c-1.47-.226-1.829-.737-2.57-1.974l-5.931-9.872c4.345-1.034 6.458-3.479 6.458-7.465 0-6.435-5.328-7.753-13.329-7.753h-6.765c-.431 0-.78.37-.813.86-.029.433.213.908.816.99 1.691.26 2.207.691 2.207 1.845v21.524c0 1.153-.516 1.584-2.202 1.844-.607.082-.851.556-.821.989.033.491.383.861.813.861h7.831c.431 0 .78-.37.813-.861.029-.433-.214-.907-.816-.989-1.691-.26-2.207-.691-2.207-1.845v-9.426h1.8c.878 0 1.71 0 2.531-.069l5.905 9.788c.22.365.283.652.189.852-.147.314-.715.544-1.73.7-.607.082-.85.556-.82.99.033.49.383.86.812.86h7.831c.431 0 .78-.37.813-.861.031-.432-.213-.906-.815-.988zm-16.516-23.779c0-.577.234-.693.611-.693h1.722c7.563 0 8.606 2.481 8.606 5.162 0 2.556-1.044 5.49-9.181 5.49h-1.759v-9.959zM441.675 338.98c-.525 0-.909.323-.977.818-.282 1.831-.646 2.822-1.762 2.822h-9.881c-.463 0-.652-.201-.652-.693v-10.41h7.95c1.101 0 1.566.609 1.843 2.408.068.5.452.823.978.823.49 0 .997-.305.997-.815v-7.298c0-.511-.507-.815-.997-.815-.525 0-.909.323-.977.818-.271 1.764-.72 2.33-1.844 2.33h-7.95v-9.385c0-.493.189-.693.652-.693h9.061c1.236 0 1.418.573 1.805 2.384.09.426.442.701.898.701.5 0 1.032-.35 1.032-.998v-3.566c0-.696-.431-1.111-1.152-1.111h-17.917c-.431 0-.78.37-.813.86-.029.433.213.908.816.99 1.691.26 2.207.691 2.207 1.845v21.524c0 1.153-.516 1.584-2.202 1.844-.607.082-.851.556-.821.989.033.491.383.861.813.861h18.737c.722 0 1.152-.416 1.152-1.111v-4.305c.001-.512-.506-.817-.996-.817z"/></g><path fill="#A5995E" d="m311.987 111.038 11.062-11.061-11.062-11.062c3.739-5.092 5.688-10.96 6.193-16.465l1.131-12.336-9.523-7.923c-4.25-3.536-9.778-6.307-16.022-7.264V29.283h-15.644c-.957-6.244-3.727-11.772-7.263-16.022l-7.923-9.523L250.6 4.869c-5.505.505-11.373 2.455-16.465 6.193L223.073 0l-11.062 11.062c-5.092-3.739-10.96-5.688-16.465-6.193L183.21 3.738l-7.923 9.523c-3.536 4.25-6.306 9.778-7.263 16.022H152.38v15.644c-6.244.957-11.772 3.727-16.022 7.263l-9.523 7.923 1.131 12.336c.505 5.505 2.455 11.373 6.193 16.465l-11.062 11.062 11.062 11.061c-3.739 5.092-5.688 10.96-6.193 16.465l-1.131 12.336 9.523 7.923c4.25 3.536 9.777 6.307 16.022 7.264v15.644h15.644c.957 6.244 3.727 11.772 7.263 16.021l7.923 9.523 12.336-1.131c5.505-.505 11.373-2.455 16.465-6.194l11.062 11.062 11.062-11.062c5.092 3.739 10.96 5.689 16.465 6.194l12.336 1.131 7.923-9.523c3.536-4.25 6.307-9.777 7.264-16.021h15.643v-15.644c6.244-.957 11.773-3.728 16.022-7.264l9.523-7.923-1.131-12.336c-.504-5.505-2.454-11.372-6.193-16.464zm-3.673-4.166c-2.958-2.807-6.63-5.196-11.109-6.896 4.479-1.7 8.151-4.089 11.109-6.896l6.896 6.896-6.896 6.896zm-15.251 15.251c-1.907-8.072-7.509-14.915-14.407-19.376h2.072c11.58 0 18.967 3.552 23.682 8.029l-11.347 11.347zm-59.189 59.189c-4.477-4.714-8.029-12.101-8.029-23.682v-2.072c4.461 6.898 11.303 12.5 19.376 14.407l-11.347 11.347zm-32.948-11.346c8.072-1.907 14.915-7.509 19.376-14.407v2.072c0 11.58-3.552 18.967-8.029 23.682l-11.347-11.347zm-47.842-92.137c1.907 8.072 7.509 14.915 14.407 19.376h-2.072c-11.58 0-18.967-3.552-23.682-8.029l11.347-11.347zm59.189-59.189c4.477 4.714 8.029 12.101 8.029 23.681v2.072c-4.461-6.898-11.304-12.5-19.376-14.407l11.347-11.346zm32.948 11.347c-8.072 1.907-14.915 7.509-19.376 14.407v-2.072c0-11.58 3.552-18.967 8.029-23.681l11.347 11.346zm35.507 67.218h-2.072c6.898-4.461 12.5-11.304 14.407-19.376l11.346 11.347c-4.714 4.477-12.101 8.029-23.681 8.029zm-30.684 67.884c-13.505-.787-24.199-15.11-24.199-27.028v-31.393l22.209 22.209c8.419 8.432 10.979 26.11 1.99 36.212zm-53.941 0c-8.989-10.101-6.429-27.78 1.99-36.213l22.209-22.209v31.393c0 11.919-10.694 26.242-24.199 27.029zm-1.919-40.143c-4.252 4.252-10.991 7.084-18.027 7.576-7.185.506-13.596-1.47-18.196-5.571.784-13.507 15.108-24.203 27.028-24.203h31.393l-22.198 22.198zm1.919-90.082c13.505.787 24.199 15.11 24.199 27.028v31.393l-22.199-22.199c-8.427-8.427-10.992-26.117-2-36.222zm53.941 0c8.992 10.105 6.427 27.795-2 36.223l-22.199 22.199V61.892c0-11.918 10.694-26.241 24.199-27.028zm1.919 40.142c4.252-4.252 10.991-7.084 18.027-7.576 7.19-.505 13.596 1.47 18.196 5.571-.784 13.507-15.109 24.203-27.028 24.203h-31.393l22.198-22.198zm-35.58 22.199H184.99c-11.92 0-26.244-10.697-27.028-24.203 4.599-4.1 11.008-6.081 18.196-5.571 7.037.492 13.776 3.324 18.027 7.576l22.198 22.198zm35.58 27.741-22.198-22.198h31.393c11.92 0 26.244 10.696 27.028 24.203-4.6 4.1-11.01 6.077-18.196 5.571-7.036-.493-13.775-3.324-18.027-7.576zm36.261-58.808c-5.223-3.238-11.647-4.727-18.62-4.237-1.787.125-3.56.385-5.296.761l1.494-1.494c8.188-8.188 15.924-10.9 22.423-11.068v16.038zm-26.342-8.889-1.466 1.466c1.724-8.032.847-16.833-3.513-23.889h16.047c-.169 6.499-2.88 14.235-11.068 22.423zm-76.151 1.466-1.466-1.466c-8.188-8.188-10.9-15.923-11.067-22.423h16.047c-4.36 7.056-5.237 15.857-3.514 23.889zm-3.891 3.947a37.366 37.366 0 0 0-5.296-.761c-6.972-.488-13.397 1-18.62 4.238V50.1c6.499.168 14.234 2.88 22.423 11.068l1.493 1.494zm-14.349 40.086c-6.898 4.461-12.5 11.304-14.407 19.376l-11.346-11.347c4.714-4.477 12.102-8.029 23.682-8.029h2.071zm-9.568 31.065c5.223 3.237 11.647 4.724 18.62 4.238a37.237 37.237 0 0 0 5.297-.762l-1.495 1.495c-8.188 8.188-15.923 10.9-22.423 11.068v-16.039zm26.342 8.891 1.466-1.466c-1.724 8.032-.847 16.833 3.513 23.889h-16.047c.168-6.5 2.88-14.235 11.068-22.423zm76.151-1.466 1.466 1.466c8.188 8.188 10.9 15.923 11.068 22.423h-16.047c4.36-7.056 5.236-15.857 3.513-23.889zm3.89-3.948c1.737.377 3.51.637 5.297.762 6.973.491 13.397-.998 18.62-4.237v16.038c-6.499-.168-14.234-2.88-22.423-11.068l-1.494-1.495zm41.938-80.839 7.281 6.059-.865 9.434c-.18 1.961-1.003 7.556-4.661 12.984l-14.232-14.232v-20.13c6.425 1.251 10.964 4.625 12.477 5.885zm-18.02-11.873c-4.076.107-8.363 1.014-12.732 2.98 1.965-4.369 2.872-8.656 2.979-12.732h9.753v9.752zm-37.117-34.189 9.433-.866 6.059 7.282c1.259 1.514 4.633 6.052 5.884 12.477h-20.128L238.123 15.05c5.428-3.658 11.023-4.481 12.984-4.661zm-21.137 4.347c-2.807 2.958-5.197 6.63-6.896 11.109-1.699-4.479-4.089-8.151-6.896-11.109l6.896-6.896 6.896 6.896zm-50.422 2.07 6.059-7.282 9.434.866c1.961.18 7.556 1.003 12.984 4.661l-14.232 14.233h-20.128c1.25-6.426 4.624-10.965 5.883-12.478zm-11.872 18.02c.107 4.076 1.014 8.363 2.979 12.731-4.369-1.965-8.656-2.872-12.732-2.979v-9.752h9.753zm-34.19 37.117-.865-9.434 7.281-6.059c1.514-1.259 6.052-4.634 12.477-5.885v20.128l-14.232 14.232c-3.658-5.426-4.481-11.021-4.661-12.982zm4.347 21.137c2.958 2.807 6.63 5.196 11.109 6.896-4.479 1.699-8.151 4.089-11.109 6.896l-6.896-6.896 6.896-6.896zm2.07 50.421-7.281-6.059.865-9.434c.18-1.961 1.003-7.556 4.661-12.983l14.232 14.232v20.129c-6.425-1.251-10.963-4.625-12.477-5.885zm18.02 11.873c4.076-.107 8.363-1.014 12.731-2.979-1.965 4.369-2.872 8.656-2.979 12.732h-9.752v-9.753zm37.117 34.189-9.434.865-6.059-7.282c-1.259-1.513-4.633-6.052-5.884-12.476h20.129l14.232 14.232c-5.428 3.658-11.023 4.481-12.984 4.661zm21.137-4.347c2.807-2.958 5.196-6.63 6.896-11.109 1.7 4.479 4.089 8.151 6.896 11.109l-6.896 6.896-6.896-6.896zm50.422-2.07-6.059 7.282-9.433-.865c-1.961-.18-7.556-1.003-12.984-4.661l14.232-14.232h20.129c-1.252 6.424-4.626 10.963-5.885 12.476zm11.873-18.019c-.106-4.076-1.014-8.363-2.979-12.731 4.368 1.965 8.655 2.872 12.731 2.979v9.753h-9.752zm27.772-21.626c-1.514 1.259-6.052 4.634-12.477 5.885v-20.129l14.232-14.232c3.658 5.428 4.481 11.023 4.661 12.983l.865 9.434-7.281 6.059z"/></svg>